Units are S.I. units (second, meters, Newtons, ...)
Angles are in degrees.
name squat
datarows 58
datacolumns 19
range 0 0.571429
endheader
time	exo_pelvis_tx	exo_pelvis_ty	exo_pelvis_tilt	exo_hip_r	exo_hip_l	exo_knee_r	exo_knee_l	r_ankle_coupling	l_ankle_coupling	planar_xdot	planar_zdot	planar_rotydot	exo_hip_rdot	exo_hip_ldot	exo_knee_rdot	exo_knee_ldot	r_ankle_couplingdot	l_ankle_couplingdot	
0	-0.431135	0.895986	2.48484e-11	-2.59423	-2.59423	-1.99266	-1.99266	4.58704	4.58704	0	1.09677e-11	-1.98376e-13	-4.42459e-12	9.58425e-12	-1.4666e-24	6.0226e-24	-1.32224e-11	-1.37757e-11	
0.0100251	-0.431113	0.895985	-1.08117e-05	-2.59963	-2.59963	-1.98409	-1.98409	4.58388	4.58388	0.222737	0.00325859	-0.0598336	-0.372784	-0.372783	0.291818	0.291817	0.140811	0.14081	
0.0200501	-0.431047	0.895981	-3.92469e-05	-2.61548	-2.61548	-1.95912	-1.95912	4.57479	4.57479	0.444502	0.00421148	-0.11014	-0.798034	-0.798033	0.686882	0.686883	0.221316	0.221313	
0.0300752	-0.430938	0.895976	-7.93062e-05	-2.64122	-2.64122	-1.91889	-1.91889	4.56034	4.56034	0.665043	0.00296277	-0.151392	-1.27008	-1.27008	1.1738	1.1738	0.247713	0.247705	
0.0401003	-0.430787	0.895968	-0.00012499	-2.6763	-2.6763	-1.86452	-1.86452	4.5411	4.5411	0.884105	-0.000383479	-0.184059	-1.78326	-1.78326	1.74118	1.74119	0.226196	0.226182	
0.0501253	-0.430595	0.895959	-0.000170298	-2.72017	-2.72017	-1.79715	-1.79715	4.51764	4.51764	1.10144	-0.00572317	-0.208615	-2.3319	-2.3319	2.37763	2.37764	0.162962	0.16294	
0.0601504	-0.430364	0.895947	-0.000209232	-2.77228	-2.77228	-1.7179	-1.7179	4.49054	4.49054	1.31678	-0.0129522	-0.22553	-2.91033	-2.91033	3.07175	3.07177	0.0642069	0.0641752	
0.0701754	-0.430093	0.895932	-0.00023579	-2.83208	-2.83208	-1.6279	-1.6279	4.46037	4.46037	1.52989	-0.0219666	-0.235276	-3.51289	-3.51289	3.81216	3.81218	-0.0638743	-0.063917	
0.0802005	-0.429785	0.895915	-0.000243975	-2.89902	-2.89902	-1.52829	-1.52829	4.4277	4.4277	1.74051	-0.0326621	-0.238325	-4.13391	-4.13391	4.58745	4.58748	-0.215085	-0.21514	
0.0902256	-0.42944	0.895896	-0.000227786	-2.97254	-2.97254	-1.42018	-1.42018	4.3931	4.3931	1.94839	-0.0449347	-0.235148	-4.76771	-4.76771	5.38625	5.38629	-0.383231	-0.383298	
0.100251	-0.429059	0.895875	-0.000181224	-3.0521	-3.0521	-1.30472	-1.30472	4.35715	4.35715	2.15327	-0.0586804	-0.226217	-5.40864	-5.40864	6.19715	6.1972	-0.562114	-0.562196	
0.110276	-0.428644	0.895851	-9.82883e-05	-3.13715	-3.13715	-1.18302	-1.18302	4.32042	4.32042	2.3549	-0.073795	-0.212004	-6.05102	-6.05102	7.00876	7.00882	-0.74554	-0.745636	
0.120301	-0.428194	0.895824	2.70198e-05	-3.22713	-3.22713	-1.05623	-1.05623	4.28348	4.28348	2.55302	-0.0901745	-0.19298	-6.68918	-6.68918	7.8097	7.80976	-0.927312	-0.927423	
0.130326	-0.427712	0.895795	0.0002007	-3.32149	-3.32149	-0.925463	-0.925463	4.24691	4.24691	2.74739	-0.107715	-0.169616	-7.31746	-7.31746	8.58856	8.58863	-1.10124	-1.10136	
0.140351	-0.427198	0.895763	0.000428752	-3.41969	-3.41969	-0.791855	-0.791855	4.21127	4.21127	2.93776	-0.126312	-0.142385	-7.93019	-7.93019	9.33395	9.33404	-1.26111	-1.26125	
0.150376	-0.426654	0.895729	0.000717176	-3.52117	-3.52117	-0.656534	-0.656534	4.17714	4.17714	3.12386	-0.145861	-0.111758	-8.5217	-8.5217	10.0345	10.0346	-1.40075	-1.40091	
0.160401	-0.426079	0.895692	0.00107197	-3.62538	-3.62538	-0.52063	-0.52063	4.14509	4.14509	3.30544	-0.166259	-0.0782064	-9.08632	-9.08632	10.6788	10.6789	-1.51395	-1.51412	
0.170426	-0.425476	0.895653	0.00149914	-3.73177	-3.73177	-0.385271	-0.385271	4.11569	4.11569	3.48226	-0.187402	-0.042202	-9.61838	-9.61838	11.2554	11.2555	-1.59452	-1.5947	
0.180451	-0.424845	0.895611	0.00200467	-3.83979	-3.83979	-0.251588	-0.251588	4.08952	4.08952	3.65405	-0.209185	-0.00421628	-10.1122	-10.1122	11.753	11.7532	-1.63626	-1.63646	
0.190476	-0.424187	0.895566	0.00259458	-3.94889	-3.94889	-0.120709	-0.120709	4.06715	4.06715	3.82057	-0.231504	0.035279	-10.5622	-10.5622	12.1602	12.1603	-1.63297	-1.63319	
0.200501	-0.423504	0.895518	0.00327486	-4.05852	-4.05852	0.00623631	0.00623631	4.04916	4.04916	3.98157	-0.254255	0.0758124	-10.9626	-10.9626	12.4656	12.4657	-1.57847	-1.57869	
0.210526	-0.422795	0.895468	0.0040515	-4.16812	-4.16812	0.128118	0.128118	4.0361	4.0361	4.13678	-0.277335	0.116912	-11.3077	-11.3077	12.6577	12.6579	-1.46655	-1.46678	
0.220551	-0.422063	0.895414	0.00493051	-4.27715	-4.27715	0.243808	0.243808	4.02856	4.02856	4.28596	-0.300638	0.158107	-11.592	-11.592	12.7253	12.7254	-1.29101	-1.29126	
0.230576	-0.421309	0.895358	0.0059179	-4.38506	-4.38506	0.352176	0.352176	4.02712	4.02712	4.42885	-0.324062	0.198924	-11.8097	-11.8097	12.6568	12.657	-1.04567	-1.04593	
0.240602	-0.420532	0.895299	0.00701965	-4.49129	-4.49129	0.452092	0.452092	4.03233	4.03233	4.5652	-0.347501	0.238894	-11.9551	-11.9551	12.441	12.4411	-0.724329	-0.724589	
0.250627	-0.419735	0.895237	0.00824177	-4.5953	-4.5953	0.542429	0.542429	4.04478	4.04478	4.69476	-0.370852	0.277543	-12.0227	-12.0227	12.0663	12.0665	-0.320786	-0.321051	
0.260652	-0.418918	0.895172	0.00959025	-4.69652	-4.69652	0.622055	0.622055	4.06503	4.06503	4.81727	-0.394011	0.314401	-12.0067	-12.0067	11.5215	11.5217	0.171152	0.170885	
0.270677	-0.418083	0.895104	0.0110711	-4.79443	-4.79443	0.689843	0.689843	4.09366	4.09366	4.93248	-0.416874	0.348996	-11.9014	-11.9014	10.7952	10.7953	0.757681	0.757414	
0.280702	-0.41723	0.895033	0.0126903	-4.88845	-4.88845	0.744662	0.744662	4.13125	4.13125	5.04015	-0.439336	0.380855	-11.7013	-11.7013	9.87582	9.87598	1.445	1.44473	
0.290727	-0.41636	0.894958	0.0144539	-4.97804	-4.97804	0.785384	0.785384	4.17836	4.17836	5.14	-0.461293	0.409509	-11.4005	-11.4005	8.75213	8.75229	2.2393	2.23903	
0.300752	-0.415474	0.894881	0.0163679	-5.06266	-5.06266	0.810878	0.810878	4.23556	4.23556	5.2318	-0.482642	0.434484	-10.9936	-10.9936	7.41269	7.41284	3.14677	3.14652	
0.310777	-0.414574	0.894801	0.0184382	-5.14174	-5.14174	0.820016	0.820016	4.30344	4.30344	5.31528	-0.503278	0.45531	-10.4747	-10.4747	5.84611	5.84626	4.17362	4.17338	
0.320802	-0.41366	0.894717	0.0206709	-5.21474	-5.21474	0.811669	0.811669	4.38255	4.38255	5.3902	-0.523097	0.471514	-9.83822	-9.83822	4.041	4.04114	5.32605	5.32581	
0.330827	-0.412734	0.89463	0.0230719	-5.28111	-5.28111	0.784706	0.784706	4.47348	4.47348	5.45631	-0.541996	0.482626	-9.07851	-9.07851	1.98597	1.9861	6.61023	6.61002	
0.340852	-0.411796	0.89454	0.0256473	-5.34029	-5.34029	0.737999	0.737999	4.5768	4.5768	5.51334	-0.559869	0.488173	-8.18988	-8.18989	-0.330385	-0.330264	8.03238	8.03219	
0.350877	-0.410847	0.894447	0.0284031	-5.39174	-5.39174	0.670419	0.670419	4.69307	4.69307	5.56105	-0.576613	0.487684	-7.16668	-7.16668	-2.91945	-2.91934	9.59869	9.59852	
0.360902	-0.409889	0.89435	0.0313452	-5.43491	-5.43491	0.580835	0.580835	4.82288	4.82288	5.59918	-0.592125	0.480687	-6.00322	-6.00322	-5.79261	-5.79252	11.3153	11.3152	
0.370927	-0.408922	0.89425	0.0344797	-5.46924	-5.46924	0.468119	0.468119	4.96679	4.96679	5.62748	-0.606299	0.466712	-4.69384	-4.69384	-8.96127	-8.9612	13.1886	13.1884	
0.380952	-0.407947	0.894146	0.0378126	-5.49418	-5.49418	0.331142	0.331142	5.12538	5.12538	5.6457	-0.619031	0.445285	-3.23287	-3.23287	-12.4368	-12.4368	15.2245	15.2244	
0.390977	-0.406966	0.894039	0.0413498	-5.50919	-5.50919	0.168774	0.168774	5.29922	5.29922	5.65358	-0.630219	0.415936	-1.61465	-1.61465	-16.2306	-16.2306	17.4294	17.4294	
0.401003	-0.405979	0.893929	0.0450987	-5.51371	-5.51371	-0.0201164	-0.0201164	5.48888	5.48888	5.65094	-0.639796	0.378237	0.164911	0.164912	-20.3508	-20.3508	19.8076	19.8076	
0.411028	-0.404987	0.893807	0.0492083	-5.50754	-5.50754	-0.236436	-0.236436	5.69492	5.69492	5.64659	-0.652251	0.336987	1.9242	1.9242	-24.4104	-24.4104	22.1491	22.1492	
0.421053	-0.403991	0.893668	0.0537463	-5.49103	-5.49103	-0.479527	-0.479527	5.91696	5.91696	5.64626	-0.670479	0.295682	3.54025	3.54026	-28.1473	-28.1474	24.3113	24.3114	
0.431078	-0.402992	0.893512	0.0586688	-5.46455	-5.46455	-0.748265	-0.748265	6.1543	6.1543	5.6494	-0.694162	0.254334	5.01867	5.01867	-31.573	-31.573	26.2999	26.3001	
0.441103	-0.40199	0.89334	0.0639319	-5.42846	-5.42846	-1.04153	-1.04153	6.40621	6.40621	5.65546	-0.722984	0.212951	6.36501	6.36502	-34.6985	-34.6986	28.1205	28.1207	
0.451128	-0.400986	0.893153	0.0694916	-5.38312	-5.38312	-1.3582	-1.3582	6.67197	6.67197	5.66388	-0.756626	0.171542	7.58488	7.58489	-37.5351	-37.5353	29.7788	29.779	
0.461153	-0.39998	0.892951	0.075304	-5.32889	-5.32889	-1.69714	-1.69714	6.95088	6.95088	5.67413	-0.794773	0.130119	8.68385	8.68385	-40.0942	-40.0943	31.2804	31.2806	
0.471178	-0.398975	0.892734	0.0813249	-5.26614	-5.26614	-2.05725	-2.05725	7.24222	7.24222	5.68565	-0.837107	0.0886899	9.6675	9.6675	-42.3869	-42.387	32.631	32.6313	
0.481203	-0.39797	0.892503	0.0875106	-5.19523	-5.19523	-2.43739	-2.43739	7.54526	7.54526	5.69789	-0.883312	0.0472651	10.5414	10.5414	-44.4245	-44.4246	33.8363	33.8365	
0.491228	-0.396967	0.892258	0.093817	-5.11652	-5.11652	-2.83645	-2.83645	7.85931	7.85931	5.71029	-0.933069	0.00585417	11.3112	11.3112	-46.2182	-46.2183	34.9018	34.9021	
0.501253	-0.395965	0.892	0.1002	-5.03038	-5.03038	-3.25329	-3.25329	8.18363	8.18363	5.72232	-0.986063	-0.0355331	11.9823	11.9824	-47.7793	-47.7794	35.8333	35.8336	
0.511278	-0.394966	0.891729	0.106616	-4.93717	-4.93717	-3.68681	-3.68681	8.51751	8.51751	5.73342	-1.04198	-0.0768871	12.5605	12.5605	-49.119	-49.1191	36.6364	36.6366	
0.521303	-0.393971	0.891445	0.113021	-4.83725	-4.83725	-4.13587	-4.13587	8.86025	8.86025	5.74304	-1.10049	-0.118198	13.0513	13.0513	-50.2486	-50.2488	37.3167	37.317	
0.531328	-0.392981	0.89115	0.119371	-4.73098	-4.73098	-4.59936	-4.59936	9.21112	9.21112	5.75063	-1.16129	-0.159456	13.4603	13.4603	-51.1793	-51.1795	37.88	37.8802	
0.541353	-0.391995	0.890844	0.125621	-4.61873	-4.61873	-5.07614	-5.07614	9.56941	9.56941	5.75564	-1.22406	-0.200652	13.793	13.793	-51.9224	-51.9226	38.3318	38.332	
0.551378	-0.391016	0.890526	0.131729	-4.50086	-4.50086	-5.56511	-5.56511	9.9344	9.9344	5.75752	-1.28848	-0.241775	14.055	14.055	-52.4892	-52.4893	38.6778	38.6781	
0.561404	-0.390044	0.890198	0.137649	-4.37774	-4.37774	-6.06513	-6.06513	10.3054	10.3054	5.75572	-1.35424	-0.282816	14.252	14.252	-52.8908	-52.8909	38.9237	38.924	
0.571429	-0.389079	0.889861	0.143339	-4.24972	-4.24972	-6.57509	-6.57509	10.6816	10.6816	5.74969	-1.42101	-0.323766	14.3894	14.3894	-53.1385	-53.1387	39.0751	39.0754	
